<svg
  id="visual"
  viewBox="0 0 900 600"
  width="900"
  height="600"
  xmlns="http://www.w3.org/2000/svg"
  xmlns:xlink="http://www.w3.org/1999/xlink"
  version="1.1"
>
  <rect x="0" y="0" width="900" height="600" fill="#000000"></rect><path
    d="M0 126L21.5 123.3C43 120.7 86 115.3 128.8 118.8C171.7 122.3 214.3 134.7 257.2 127.5C300 120.3 343 93.7 385.8 95C428.7 96.3 471.3 125.7 514.2 130.3C557 135 600 115 642.8 99.7C685.7 84.3 728.3 73.7 771.2 71.2C814 68.7 857 74.3 878.5 77.2L900 80L900 0L878.5 0C857 0 814 0 771.2 0C728.3 0 685.7 0 642.8 0C600 0 557 0 514.2 0C471.3 0 428.7 0 385.8 0C343 0 300 0 257.2 0C214.3 0 171.7 0 128.8 0C86 0 43 0 21.5 0L0 0Z"
    fill="#575757"
  ></path><path
    d="M0 77L21.5 88C43 99 86 121 128.8 123C171.7 125 214.3 107 257.2 104.5C300 102 343 115 385.8 121.2C428.7 127.3 471.3 126.7 514.2 120.7C557 114.7 600 103.3 642.8 101.5C685.7 99.7 728.3 107.3 771.2 107.2C814 107 857 99 878.5 95L900 91L900 0L878.5 0C857 0 814 0 771.2 0C728.3 0 685.7 0 642.8 0C600 0 557 0 514.2 0C471.3 0 428.7 0 385.8 0C343 0 300 0 257.2 0C214.3 0 171.7 0 128.8 0C86 0 43 0 21.5 0L0 0Z"
    fill="#767676"
  ></path><path
    d="M0 48L21.5 57.2C43 66.3 86 84.7 128.8 94C171.7 103.3 214.3 103.7 257.2 95.8C300 88 343 72 385.8 63.5C428.7 55 471.3 54 514.2 59.5C557 65 600 77 642.8 77.8C685.7 78.7 728.3 68.3 771.2 73.7C814 79 857 100 878.5 110.5L900 121L900 0L878.5 0C857 0 814 0 771.2 0C728.3 0 685.7 0 642.8 0C600 0 557 0 514.2 0C471.3 0 428.7 0 385.8 0C343 0 300 0 257.2 0C214.3 0 171.7 0 128.8 0C86 0 43 0 21.5 0L0 0Z"
    fill="#969696"
  ></path><path
    d="M0 53L21.5 59.3C43 65.7 86 78.3 128.8 78.5C171.7 78.7 214.3 66.3 257.2 65.7C300 65 343 76 385.8 74.8C428.7 73.7 471.3 60.3 514.2 52.3C557 44.3 600 41.7 642.8 50.3C685.7 59 728.3 79 771.2 87C814 95 857 91 878.5 89L900 87L900 0L878.5 0C857 0 814 0 771.2 0C728.3 0 685.7 0 642.8 0C600 0 557 0 514.2 0C471.3 0 428.7 0 385.8 0C343 0 300 0 257.2 0C214.3 0 171.7 0 128.8 0C86 0 43 0 21.5 0L0 0Z"
    fill="#b8b8b8"
  ></path><path
    d="M0 71L21.5 65.5C43 60 86 49 128.8 46.8C171.7 44.7 214.3 51.3 257.2 55.7C300 60 343 62 385.8 56.8C428.7 51.7 471.3 39.3 514.2 39C557 38.7 600 50.3 642.8 53.3C685.7 56.3 728.3 50.7 771.2 48.7C814 46.7 857 48.3 878.5 49.2L900 50L900 0L878.5 0C857 0 814 0 771.2 0C728.3 0 685.7 0 642.8 0C600 0 557 0 514.2 0C471.3 0 428.7 0 385.8 0C343 0 300 0 257.2 0C214.3 0 171.7 0 128.8 0C86 0 43 0 21.5 0L0 0Z"
    fill="#dbdbdb"
  ></path><path
    d="M0 32L21.5 32.8C43 33.7 86 35.3 128.8 36.7C171.7 38 214.3 39 257.2 39C300 39 343 38 385.8 39.3C428.7 40.7 471.3 44.3 514.2 44.7C557 45 600 42 642.8 38.2C685.7 34.3 728.3 29.7 771.2 28.7C814 27.7 857 30.3 878.5 31.7L900 33L900 0L878.5 0C857 0 814 0 771.2 0C728.3 0 685.7 0 642.8 0C600 0 557 0 514.2 0C471.3 0 428.7 0 385.8 0C343 0 300 0 257.2 0C214.3 0 171.7 0 128.8 0C86 0 43 0 21.5 0L0 0Z"
    fill="#ffffff"
  ></path>
</svg>
